<svg width="1080" height="1080" fill="none" xmlns="http://www.w3.org/2000/svg"><path fill="#fff" d="M0 0h1080v1080H0z"/><g clip-path="url(#a)"><path d="M185.93 290.35 81.14 211.29c-19.77-15.82-21.57 12.99-12.53 23.18 9.04 10.19 91.45 93.56 91.45 93.56l25.87-37.68Z" fill="#F8D8C1" stroke="#191C1E" stroke-width="3" stroke-linecap="round" stroke-linejoin="round"/><path d="M645.73 44.5h-88.19c-64.06 0-115.99 51.93-115.99 115.99v88.19c0 64.06 51.93 115.99 115.99 115.99h88.19c64.059 0 115.99-51.93 115.99-115.99v-88.19c0-64.06-51.931-115.99-115.99-115.99Z" fill="#FF8669" stroke="#191C1E" stroke-width="3" stroke-linecap="round" stroke-linejoin="round"/><path d="M634.8 140.59c0-18.319-14.848-33.17-33.165-33.17s-33.165 14.851-33.165 33.17v78.47c0 18.319 14.848 33.17 33.165 33.17s33.165-14.851 33.165-33.17v-78.47Z" fill="#fff" stroke="#191C1E" stroke-width="3" stroke-linecap="round" stroke-linejoin="round"/><path d="M653.02 220.47a51.389 51.389 0 0 1-102.77 0M601.63 271.85v29.9M568.47 301.75h66.33M357.28 896.27h553.97" stroke="#191C1E" stroke-width="3" stroke-linecap="round" stroke-linejoin="round"/><path d="M350.5 595.29s104.95-159.82 169.37-159.82 98.3 46.17 183 68.83c84.7 22.66 198.21-40.88 245.51-35 31.23 3.92 100.93 8.47 56 159.25-47 157.77-101.65 230.4-152.47 230.4v37.27H536.87l-66.09-125.31c-13.55-35.57-1.69-81.31-1.69-81.31s-110.12 142.3-181.22 69.45c-71.1-72.85-179.63-254.11-179.63-254.11l154.17-91.47 88.09 181.82Z" fill="#fff" stroke="#191C1E" stroke-width="3" stroke-linecap="round" stroke-linejoin="round"/><path d="M108.24 504.94c-15.81-29.37 131.38-138.47 154.17-91.47 22.79 47-123.67 138.9-154.17 91.47Z" fill="#191C1E" stroke="#191C1E" stroke-width="3" stroke-linecap="round" stroke-linejoin="round"/><path d="M630.7 475.68s11.19 81.77 73 103c61.81 21.23 150-89.48 150-89.48s-41.83 11.27-53.35 13.48l-11.07-48.57c-5.09-20.33 57.33-47.07 70.3-100.8 17.79-73.69-91.48-127-146.54-50.82-41.5 68.61-52.52 69.46-52.52 69.46l20.35 5.08s-31.34 67.77 29.65 65.22c0 0-20.71 39.61-31.5 54.65-.02 0-34.58-14-48.32-21.22Z" fill="#F8D8C1" stroke="#191C1E" stroke-width="3" stroke-linecap="round" stroke-linejoin="round"/><path d="M469.09 689.6c11.57-45.63 54.21-121.13 54.21-121.13Z" fill="#fff"/><path d="M469.09 689.6c11.57-45.63 54.21-121.13 54.21-121.13" stroke="#191C1E" stroke-width="3" stroke-linecap="round" stroke-linejoin="round"/><path d="m146.38 309.02-22.33-17.55c-15.81-12.42-20.33-39.53 4.52-31.62l57.36 30.49c55.1 51.95 76.48 123.1 76.48 123.1 11 41.51-60.29 83.86-70.81 88.84 0 0-61.33-73.59-62.18-108.32-.85-34.73 16.96-84.94 16.96-84.94Z" fill="#F8D8C1" stroke="#191C1E" stroke-width="3" stroke-linecap="round" stroke-linejoin="round"/><path d="M113.46 353.82s-29.66 8.38-6 41.14 25.93 34.31 25.93 34.31c10.6 16.18 23.16 2.68 13-16.67l-32.93-58.78Z" fill="#F8D8C1" stroke="#191C1E" stroke-width="3" stroke-linecap="round" stroke-linejoin="round"/><path d="M122.21 323.76s-29.66 8.38-6 41.13 29.32 45.74 29.32 45.74c11.58 25.7 19.77-8.75 9.6-28.09l-32.92-58.78Z" fill="#F8D8C1" stroke="#191C1E" stroke-width="3" stroke-linecap="round" stroke-linejoin="round"/><path d="M173.75 401.85c-8-21.78-2.26-73.1-2.26-73.1l-25.11-19.73" stroke="#191C1E" stroke-width="3" stroke-linecap="round" stroke-linejoin="round"/><path d="M130.64 296.65s-29.66 8.38-6 41.13 29.32 45.75 29.32 45.75c11.58 25.69 19.77-8.76 9.6-28.1l-17.69-31.67 8.23-8.71-23.46-18.4Z" fill="#F8D8C1" stroke="#191C1E" stroke-width="3" stroke-linecap="round" stroke-linejoin="round"/><path d="M796.87 327.06c21.18 0 17.79 44.89-18.64 59.29l10.69 65.78c-1.64-20.66 58.67-46.66 70.66-98.82 16.29-70.82-74.26-116.61-128-70.39.09.49 7.83 43.44 31.42 70.39.02 0 12.72-26.25 33.87-26.25Z" fill="#191C1E" stroke="#191C1E" stroke-width="3" stroke-linecap="round" stroke-linejoin="round"/><path d="M926.5 389.07c36.075 0 65.32-29.245 65.32-65.32 0-36.075-29.245-65.32-65.32-65.32-36.075 0-65.32 29.245-65.32 65.32 0 36.075 29.245 65.32 65.32 65.32Z" fill="#191C1E" stroke="#191C1E" stroke-width="3" stroke-linecap="round" stroke-linejoin="round"/><path d="M997.65 501.79c36.08 0 65.32-29.245 65.32-65.32 0-36.075-29.24-65.32-65.32-65.32-36.075 0-65.32 29.245-65.32 65.32 0 36.075 29.245 65.32 65.32 65.32ZM991.82 633.78c36.08 0 65.32-29.245 65.32-65.32 0-36.075-29.24-65.32-65.32-65.32-36.075 0-65.32 29.245-65.32 65.32 0 36.075 29.245 65.32 65.32 65.32ZM990.42 765.78c36.08 0 65.32-29.245 65.32-65.32 0-36.075-29.24-65.32-65.32-65.32-36.075 0-65.32 29.245-65.32 65.32 0 36.075 29.245 65.32 65.32 65.32Z" fill="#191C1E" stroke="#191C1E" stroke-width="3" stroke-linecap="round" stroke-linejoin="round"/><path d="m980.7 765.06-53.26 71a8.995 8.995 0 0 0-.951 9.263 8.997 8.997 0 0 0 7.761 5.147l84.1 3.63a8.988 8.988 0 0 0 4.68-1.079 9.028 9.028 0 0 0 3.46-3.333 9.001 9.001 0 0 0 1.25-4.637 8.972 8.972 0 0 0-1.31-4.621l-45.73-75.37Z" fill="#191C1E" stroke="#191C1E" stroke-width="3" stroke-linecap="round" stroke-linejoin="round"/><path d="M68.43 158.49v27.1M43.61 216.05H16.5M30.89 173.18l19.17 19.16" stroke="#191C1E" stroke-width="3" stroke-linecap="round" stroke-linejoin="round"/><path d="M684.24 413.47s15.81 7.35 23.15 4Z" fill="#fff"/><path d="M684.24 413.47s15.81 7.35 23.15 4" stroke="#191C1E" stroke-width="3" stroke-linecap="round" stroke-linejoin="round"/><path d="M717.62 346.39a2.89 2.89 0 1 0 0-5.78 2.89 2.89 0 0 0 0 5.78Z" fill="#191C1E"/><path d="M668.22 511.83s-99.94-96.11-177.82-138.72c-16.76-8.11-20.86 5.22-3.43 22.65 17.7 17.69 65.15 64.52 65.15 64.52s-41.4 22.35-22.56 44.26c0 0-9.69 19.6 8.14 35.93 0 0-7.28 15.16 4.88 24.69 14.4 11.29 69.91 17.88 69.91 17.88l55.73-71.21Z" fill="#F8D8C1" stroke="#191C1E" stroke-width="3" stroke-linecap="round" stroke-linejoin="round"/><path d="M529.56 504.54s13-24.87 34.62-27.06M537.7 540.47s2.93-27 30.9-35.93" stroke="#191C1E" stroke-width="3" stroke-linecap="round" stroke-linejoin="round"/><path d="M552.12 460.28s10.31-5 20.17-3.94Z" fill="#fff"/><path d="M552.12 460.28s10.31-5 20.17-3.94" stroke="#191C1E" stroke-width="3" stroke-linecap="round" stroke-linejoin="round"/><path d="M230.23 1035.44c109.976 0 199.13-88.495 199.13-197.66 0-109.164-89.154-197.66-199.13-197.66S31.1 728.616 31.1 837.78c0 109.165 89.154 197.66 199.13 197.66Z" fill="#FF8669" stroke="#191C1E" stroke-width="3" stroke-linecap="round" stroke-linejoin="round"/><path d="M851.96 859.01c-120.28-1.7-288.3-213.46-288.3-213.46l104.56-133.6 209.15 240.33" fill="#fff"/><path d="M851.96 859.01c-120.28-1.7-288.3-213.46-288.3-213.46l104.56-133.6 209.15 240.33" stroke="#191C1E" stroke-width="3" stroke-linecap="round" stroke-linejoin="round"/><path d="m323.87 769.37-47.58 38.32v-37.22a18.499 18.499 0 0 0-5.471-13.068 18.519 18.519 0 0 0-13.109-5.372H133.63a18.508 18.508 0 0 0-18.58 18.44v134.62a18.499 18.499 0 0 0 5.471 13.068 18.519 18.519 0 0 0 13.109 5.372h124.1a18.519 18.519 0 0 0 17.144-11.362 18.499 18.499 0 0 0 1.436-7.078v-32l48.07 35.12a13.221 13.221 0 0 0 21-10.57v-118c.04-11.17-12.86-17.23-21.51-10.27Z" fill="#fff" stroke="#191C1E" stroke-width="3" stroke-linecap="round" stroke-linejoin="round"/></g><defs><clipPath id="a"><path fill="#fff" transform="translate(15 43)" d="M0 0h1049.47v993.94H0z"/></clipPath></defs></svg>