<?xml version="1.0" encoding="utf-8"?>
<!-- Generator: Adobe Illustrator 26.0.1, SVG Export Plug-In . SVG Version: 6.00 Build 0)  -->
<svg version="1.1" xmlns="http://www.w3.org/2000/svg" xmlns:xlink="http://www.w3.org/1999/xlink" x="0px" y="0px"
	 viewBox="0 0 800 800" style="enable-background:new 0 0 800 800;" xml:space="preserve">
<style type="text/css">
	.st0{display:none;}
	.st1{display:inline;fill:#EF4039;}
	.st2{display:inline;fill:#FFFFFF;}
	.st3{fill:url(#SVGID_1_);}
	.st4{display:inline;fill:url(#SVGID_00000031165587859667678760000014760679338763074739_);}
	.st5{display:inline;fill:url(#SVGID_00000134248633124529130980000005389508405975458465_);}
	.st6{display:inline;fill:url(#SVGID_00000145777743077694636820000003301869965524973707_);}
	.st7{display:inline;fill:url(#SVGID_00000088129549840245748640000004454268386958322607_);}
	.st8{display:inline;fill:url(#SVGID_00000132799604415926261090000016240833026440194495_);}
	.st9{display:inline;fill:url(#SVGID_00000061460472934598684730000004387668851750728864_);}
	.st10{fill:url(#SVGID_00000018932318350442315870000015079570240321722042_);}
	.st11{fill:url(#SVGID_00000173852793497241719750000009200812945016753065_);}
	.st12{fill:url(#SVGID_00000002354551757376308400000004689482248255771780_);}
	.st13{fill:url(#SVGID_00000082333237735080993410000005397658449632775572_);}
	.st14{fill:url(#SVGID_00000047045752567420869960000011008543906321437869_);}
	.st15{fill:url(#SVGID_00000028322940791027092490000001569606809879154871_);}
</style>
<g id="Layer_2" class="st0">
	<path class="st1" d="M-255.3,394c0.5-5.7,1-11.3,1.6-17c1.1-9.5,2.3-19,3.3-28.5c0.3-3.1,1.6-4.4,4.9-4.9c26.4-4.2,52.9-6,79.5-3.7
		c25.9,2.3,51.1,7.6,73.5,21.6c7.8,4.9,14.7,11.3,21.9,17.2c6.6,5.3,13.9,8.2,22.5,7.4c6.6-0.6,12.4-3.3,17.1-7.7
		c11.2-10.4,23.3-19.3,37.6-25.2c16.6-6.8,33.9-10.7,51.6-12.7c23.7-2.7,47.3-1.7,70.9,0.9c5.3,0.6,10.6,1.4,15.7,2.5
		c1.4,0.3,3.2,2.1,3.4,3.4c3.6,22.8,5.8,45.6,4.7,68.7c-0.8,17.3-2.9,34.4-7.6,51.1c-8.4,30.1-24.2,54.9-52.3,70.3
		c-19.7,10.8-40.8,14.6-63.2,11.6c-21.8-3-40.5-12.3-56.5-27.3c-6.2-5.8-12.8-10.7-21.7-11.5c-8.3-0.7-15.4,2-21.8,7
		c-8.5,6.6-16.4,14.3-25.7,19.4c-33.1,18.3-66.7,18-100.1,0.2c-12.6-6.7-23.1-15.7-31.4-27.2c-10.6-14.7-17.9-31.2-21.4-49
		c-2.7-13.6-4-27.6-5.9-41.3c-0.3-1.8-0.5-3.6-0.8-5.4C-255.3,407.4-255.3,400.7-255.3,394z M-204.6,448.1
		c27.5,32.5,79.5,29.5,102.9-0.1C-126.9,417.6-178.4,417.6-204.6,448.1z M102.9,448.2C72,413.4,19.9,421.7,0,448.7
		C28.1,480.1,77.5,477.9,102.9,448.2z"/>
	<path class="st2" d="M-204.6,448.1c26.2-30.5,77.8-30.5,102.9-0.1C-125.1,477.6-177.1,480.6-204.6,448.1z"/>
	<path class="st2" d="M102.9,448.2C77.5,477.9,28.1,480.1,0,448.7C19.9,421.7,72,413.4,102.9,448.2z"/>
	<path class="st2" d="M-245,315.4c14.8,11.7,10.3,27.8,26,38.3c13.1,8.7,27.6,5.1,27.6,6.1c0,1.6-34.8,10.7-63.6-6.1
		c-19.8-11.6-35.2-34.6-29.9-42.9C-280.3,303.7-258.5,304.8-245,315.4z"/>
	<path class="st2" d="M-245,367.5c14.8,11.7,10.3,27.8,26,38.3c13.1,8.7,27.6,5.1,27.6,6.1c0,1.6-34.8,10.7-63.6-6.1
		c-19.8-11.6-35.2-34.6-29.9-42.9C-280.3,355.8-258.5,356.9-245,367.5z"/>
	<path class="st2" d="M140.5,315.4c-14.8,11.7-10.3,27.8-26,38.3c-13.1,8.7-27.6,5.1-27.6,6.1c0,1.6,34.8,10.7,63.6-6.1
		c19.8-11.6,35.2-34.6,29.9-42.9C175.7,303.7,153.9,304.8,140.5,315.4z"/>
	<path class="st2" d="M140.5,367.5c-14.8,11.7-10.3,27.8-26,38.3c-13.1,8.7-27.6,5.1-27.6,6.1c0,1.6,34.8,10.7,63.6-6.1
		c19.8-11.6,35.2-34.6,29.9-42.9C175.7,355.8,153.9,356.9,140.5,367.5z"/>
</g>
<g id="Layer_1">
	<linearGradient id="SVGID_1_" gradientUnits="userSpaceOnUse" x1="15.8596" y1="452.5107" x2="271.171" y2="452.5107">
		<stop  offset="0" style="stop-color:#5C64AE"/>
		<stop  offset="1" style="stop-color:#926AAE"/>
	</linearGradient>
	<path class="st3" d="M269.4,428.2c-18,10.5-39.7,4.8-39.7,3.8c0-0.6,9.1,1.6,17.2-3.8c9.8-6.5,7-16.6,16.3-23.9
		c1.9-1.5,4-2.6,6.2-3.5c-0.2-1.6-0.4-3.1-0.6-4.7c-17.8,10-39,4.4-39,3.4c0-0.6,9.1,1.6,17.2-3.8c3.4-2.3,5.3-5,6.7-7.9
		c-13.9-1.4-27.9-1.9-41.9-0.3c-11.1,1.2-21.9,3.7-32.3,7.9c-8.9,3.7-16.5,9.2-23.5,15.7c-3,2.8-6.6,4.4-10.7,4.8
		c-5.4,0.5-9.9-1.3-14-4.6c-4.5-3.7-8.8-7.7-13.7-10.7c-14-8.8-29.7-12.1-45.9-13.5c-13.3-1.2-26.6-0.7-39.8,0.9
		c1.4,2.8,3.3,5.4,6.6,7.7c8.2,5.4,17.2,3.2,17.2,3.8c0,0.9-19.9,6.2-37.3-2.5c-0.2,1.5-0.4,3.1-0.5,4.6c1.5,0.8,3,1.7,4.4,2.7
		c9.3,7.3,6.4,17.4,16.3,23.9c8.2,5.4,17.2,3.2,17.2,3.8c0,1-21.8,6.7-39.7-3.8c-0.1,0-0.1-0.1-0.2-0.1c0,1.7,0,3.5,0,5.2
		c0.2,1.1,0.4,2.3,0.5,3.4c1.2,8.6,2,17.3,3.7,25.8c2.2,11.1,6.7,21.4,13.4,30.6c5.2,7.2,11.7,12.8,19.6,17
		c20.9,11.1,41.9,11.3,62.6-0.1c5.8-3.2,10.7-8,16-12.1c4-3.1,8.4-4.8,13.6-4.4c5.6,0.5,9.7,3.5,13.6,7.2
		c10,9.4,21.7,15.2,35.3,17.1c14,1.9,27.1-0.5,39.5-7.2c17.6-9.6,27.4-25.1,32.7-43.9c2.9-10.4,4.2-21.1,4.7-32
		c0.1-2.5,0.2-5,0.2-7.5C270.6,427.5,270,427.9,269.4,428.2z M47.5,454.7c16.4-19.1,48.6-19.1,64.3-0.1
		C97.2,473.1,64.7,475,47.5,454.7z M175.4,455c12.4-16.8,45-22.1,64.3-0.3C223.8,473.3,193,474.7,175.4,455z"/>
	<g class="st0">
		
			<linearGradient id="SVGID_00000107550408415950036770000004352294398452635293_" gradientUnits="userSpaceOnUse" x1="292.8188" y1="451.79" x2="336.6216" y2="451.79">
			<stop  offset="0" style="stop-color:#5C64AE"/>
			<stop  offset="0.876" style="stop-color:#926AAE"/>
		</linearGradient>
		<path style="display:inline;fill:url(#SVGID_00000107550408415950036770000004352294398452635293_);" d="M293.5,418.1
			c3.4-0.1,6.7-0.1,9.8-0.2c3.1-0.1,6.3-0.1,9.4-0.1c5,0,9,0.8,12,2.3s5.2,3.6,6.6,6.3c1.4,2.7,2,5.7,2,9.2c0,2.5-0.5,4.9-1.7,7
			c-1.1,2.2-2.7,3.9-4.7,5.3c-2,1.4-4.4,2.2-7.1,2.5V449c2.8,0,5.4,0.8,8,2.3c2.5,1.5,4.6,3.6,6.3,6.3c1.6,2.7,2.4,5.8,2.4,9.2
			c0,3.1-0.7,6.1-2.1,9c-1.4,2.9-3.8,5.3-7.1,7.1c-3.3,1.8-7.9,2.8-13.6,2.8c-4.1,0-7.6,0-10.6-0.1c-3-0.1-6.2-0.1-9.7-0.2l-0.6-0.6
			v-66.1L293.5,418.1z M300.4,479.6c2.3,0,4.7,0,7,0c2.3,0,4.6,0,6.9,0c3,0,5.5-0.4,7.4-1.3c1.9-0.8,3.3-1.9,4.3-3.3
			c1-1.3,1.7-2.8,2.1-4.3c0.4-1.5,0.6-3,0.6-4.3c0-1.8-0.4-3.7-1.3-5.7c-0.9-2-2.4-3.8-4.6-5.2c-2.2-1.4-5.3-2.2-9.4-2.2h-16.2v-6.4
			h15.3c3.6,0,6.3-0.6,8.2-1.8s3.1-2.7,3.8-4.4c0.7-1.8,1-3.5,1-5.2c0-1.8-0.3-3.5-0.9-5.3c-0.6-1.7-1.8-3.2-3.6-4.3
			c-1.8-1.1-4.5-1.7-8.1-1.7c-1.6,0-3.7,0-6.1,0c-2.4,0-4.5,0-6.3-0.1V479.6z"/>
		
			<linearGradient id="SVGID_00000119837355075246312570000004878258896793437882_" gradientUnits="userSpaceOnUse" x1="347.2632" y1="461.373" x2="386.3853" y2="461.373">
			<stop  offset="0" style="stop-color:#5C64AE"/>
			<stop  offset="0.876" style="stop-color:#926AAE"/>
		</linearGradient>
		<path style="display:inline;fill:url(#SVGID_00000119837355075246312570000004878258896793437882_);" d="M347.3,472.3
			c0-3.6,0.8-6.6,2.3-9c1.6-2.3,3.7-4.1,6.5-5.2c2.8-1.1,6-1.7,9.6-1.7c2,0,4.2,0.1,6.6,0.3c2.4,0.2,4.6,0.6,6.7,1.1v5.2
			c-1.9-0.5-4.1-0.8-6.4-0.9c-2.3-0.2-4.6-0.2-6.8-0.2c-3.4,0-6.1,0.9-8.2,2.6c-2,1.7-3,4.1-3,7.3c0,2.4,0.7,4.4,2,6.1
			c1.3,1.7,3.3,2.5,5.8,2.5c2.6,0,5.4-0.9,8.5-2.7c3-1.8,5.5-4.5,7.6-8.2l1.2,6.7c-1.1,1.3-2.6,2.8-4.4,4.4
			c-1.8,1.6-3.9,3.1-6.2,4.3c-2.3,1.2-4.9,1.8-7.7,1.8c-3.2,0-5.8-0.7-8-2.1c-2.1-1.4-3.7-3.2-4.7-5.4
			C347.8,476.9,347.3,474.7,347.3,472.3z M386.4,482.3c-0.2,0.7-0.6,1.4-1.3,2.1s-1.3,1.3-2,1.7c-1.6-0.6-2.9-1.4-3.8-2.5
			c-1-1.1-1.6-2.3-2-3.7c-0.4-1.4-0.6-3-0.7-4.7v-22.9c0-3.6-0.8-6.2-2.4-7.8c-1.6-1.5-3.8-2.3-6.5-2.3c-2.7,0-5.3,0.4-8.1,1.2
			c-2.7,0.8-5.4,1.8-8,2.9c-0.7-0.6-1.2-1.4-1.7-2.5c-0.5-1.1-0.8-2.2-0.8-3.2c1.6-0.7,3.5-1.4,5.6-2.1c2.1-0.7,4.4-1.3,6.7-1.7
			s4.7-0.7,7-0.7c3.4,0,6.3,0.6,8.5,1.9s4,3.1,5.1,5.5c1.1,2.4,1.7,5.4,1.7,9v20.3c0,2.1,0.2,3.9,0.5,5.5
			C384.4,479.8,385.2,481.2,386.4,482.3z"/>
		
			<linearGradient id="SVGID_00000088812586863899744020000006775199897607564478_" gradientUnits="userSpaceOnUse" x1="400.5747" y1="461.1265" x2="438.5625" y2="461.1265">
			<stop  offset="0" style="stop-color:#5C64AE"/>
			<stop  offset="0.876" style="stop-color:#926AAE"/>
		</linearGradient>
		<path style="display:inline;fill:url(#SVGID_00000088812586863899744020000006775199897607564478_);" d="M403.9,436.8
			c1.6,0,2.7,0.4,3.2,1.3c0.5,0.9,0.7,2.1,0.7,3.8v43.6c-0.5,0.1-1,0.2-1.6,0.2s-1.3,0.1-2,0.1c-0.7,0-1.4,0-2-0.1s-1.2-0.1-1.6-0.2
			v-48l0.6-0.6H403.9z M437.4,476.1c0,1.6,0.1,3.1,0.2,4.6c0.2,1.4,0.5,2.7,0.9,3.8c-0.5,0.5-1.2,0.8-2.1,1.1
			c-0.9,0.3-1.7,0.4-2.6,0.4c-1.4,0-2.4-0.4-2.9-1.2c-0.6-0.8-0.9-2-0.9-3.6v-27.3c0-3.9-0.5-6.7-1.5-8.5c-1-1.7-2.9-2.6-5.7-2.6
			c-2,0-4.1,0.5-6.4,1.4c-2.2,0.9-4.3,2.2-6.2,3.7c-1.9,1.6-3.4,3.3-4.5,5.2v-7.7c2.1-2.7,4.9-4.9,8.4-6.6s7-2.6,10.5-2.6
			c3.1,0,5.6,0.7,7.4,2.1s3.2,3.3,4,5.6c0.8,2.3,1.2,4.9,1.2,7.7V476.1z"/>
		
			<linearGradient id="SVGID_00000091696656668905705980000014720503443893822849_" gradientUnits="userSpaceOnUse" x1="448.7119" y1="453.835" x2="475.9102" y2="453.835">
			<stop  offset="0" style="stop-color:#5C64AE"/>
			<stop  offset="0.876" style="stop-color:#926AAE"/>
		</linearGradient>
		<path style="display:inline;fill:url(#SVGID_00000091696656668905705980000014720503443893822849_);" d="M475.6,437
			c0.2,1,0.3,1.9,0.3,2.8c0,0.5,0,1-0.1,1.5s-0.1,0.9-0.3,1.4l-14.9-0.2l-11.7,0.2c-0.2-1-0.3-1.9-0.3-2.8c0-0.9,0.1-1.8,0.3-2.8
			l11.6,0.2L475.6,437z M456,426.8c0-1.6,0.2-2.9,0.7-3.7c0.5-0.8,1.5-1.3,3.2-1.3h2.7l0.6,0.6v53.3c0,1.2,0.3,2.2,0.9,2.9
			c0.6,0.8,1.6,1.1,3,1.1h7.5c0.2,0.5,0.3,1.1,0.4,1.8c0.1,0.7,0.1,1.4,0.1,2.1c0,0.3,0,0.5,0,0.8c0,0.3,0,0.5-0.1,0.7
			c-1.5,0.2-3.1,0.3-4.7,0.4c-1.6,0.1-3.4,0.1-5.3,0.1c-2.8,0-5-0.7-6.6-2.1c-1.6-1.4-2.4-3.4-2.4-6.1V426.8z"/>
		
			<linearGradient id="SVGID_00000076563089982962341680000014970145803589535113_" gradientUnits="userSpaceOnUse" x1="482.9062" y1="461.2749" x2="521.6338" y2="461.2749">
			<stop  offset="0" style="stop-color:#5C64AE"/>
			<stop  offset="0.876" style="stop-color:#926AAE"/>
		</linearGradient>
		<path style="display:inline;fill:url(#SVGID_00000076563089982962341680000014970145803589535113_);" d="M487.3,463.5v-5.6h26.9
			v-1.4c0-2.7-0.4-5.2-1.2-7.5c-0.8-2.3-2-4.1-3.7-5.4c-1.7-1.4-4-2-6.8-2c-3.9,0-6.8,1.7-8.9,5c-2.1,3.3-3.1,7.6-3.1,13v2.3
			c0,3.5,0.4,6.7,1.2,9.5c0.8,2.8,2.1,5,3.9,6.5c1.8,1.6,4.4,2.4,7.6,2.4c2.6,0,5.1-0.4,7.5-1.2s4.6-1.8,6.8-3
			c0.7,0.6,1.3,1.4,1.8,2.4c0.5,1,0.8,1.9,0.9,2.7c-2.3,1.6-5,2.9-8.1,4c-3.2,1-6.4,1.6-9.8,1.6c-3.7,0-6.8-0.7-9.3-2
			c-2.5-1.4-4.5-3.2-6-5.6c-1.5-2.4-2.5-5.1-3.2-8.2s-1-6.3-1-9.6c0-4.9,0.8-9.2,2.3-13c1.5-3.8,3.8-6.8,6.7-9
			c2.9-2.2,6.5-3.3,10.7-3.3c4.2,0,7.8,0.9,10.6,2.8s4.9,4.4,6.3,7.6c1.4,3.2,2.1,6.7,2.1,10.6c0,1.2,0,2.3-0.1,3.3
			c-0.1,1-0.2,2-0.3,3.3H487.3z"/>
		
			<linearGradient id="SVGID_00000093162902967583712400000011141952068240319925_" gradientUnits="userSpaceOnUse" x1="533.3096" y1="461.0776" x2="561.2959" y2="461.0776">
			<stop  offset="0" style="stop-color:#5C64AE"/>
			<stop  offset="0.876" style="stop-color:#926AAE"/>
		</linearGradient>
		<path style="display:inline;fill:url(#SVGID_00000093162902967583712400000011141952068240319925_);" d="M533.3,440.5
			c0.2-0.7,0.6-1.4,1.2-2.2c0.6-0.8,1.2-1.4,1.9-1.8c2.6,0.9,4.5,2.5,5.7,4.9c1.2,2.3,1.9,5.2,2,8.5v35.6c-0.5,0.1-1,0.2-1.6,0.2
			s-1.3,0.1-2,0.1c-0.7,0-1.4,0-2-0.1c-0.6,0-1.2-0.1-1.6-0.2v-34.9c0-2.5-0.4-4.5-1.1-6.2C535,442.6,534.2,441.3,533.3,440.5z
			 M561.3,436.8c0,1.1-0.1,2.3-0.4,3.6s-0.7,2.4-1.4,3.4c-0.5-0.1-1.1-0.1-1.7-0.1s-1.2,0-1.7,0c-2.2,0-4.1,0.5-5.7,1.4
			c-1.6,0.9-2.9,2.1-3.9,3.5c-1.1,1.4-1.9,2.9-2.5,4.4s-1.1,2.9-1.4,4.2l-1.3-1.6c0-2.1,0.3-4.3,0.9-6.5c0.6-2.2,1.5-4.3,2.7-6.2
			c1.2-1.9,2.8-3.4,4.8-4.6c2-1.2,4.3-1.8,7.1-1.8c0.6,0,1.2,0,2,0.1C559.5,436.5,560.4,436.6,561.3,436.8z"/>
	</g>
	<g>
		
			<linearGradient id="SVGID_00000026841578938178392940000018004992443749018775_" gradientUnits="userSpaceOnUse" x1="290.521" y1="451.79" x2="334.3237" y2="451.79">
			<stop  offset="0" style="stop-color:#926AAE"/>
			<stop  offset="1" style="stop-color:#5C64AE"/>
		</linearGradient>
		<path style="fill:url(#SVGID_00000026841578938178392940000018004992443749018775_);" d="M291.2,418.1c3.4-0.1,6.7-0.1,9.8-0.2
			c3.1-0.1,6.3-0.1,9.4-0.1c5,0,9,0.8,12,2.3s5.2,3.6,6.6,6.3c1.4,2.7,2,5.7,2,9.2c0,2.5-0.5,4.9-1.7,7c-1.1,2.2-2.7,3.9-4.7,5.3
			c-2,1.4-4.4,2.2-7.1,2.5V449c2.8,0,5.4,0.8,8,2.3c2.5,1.5,4.6,3.6,6.3,6.3c1.6,2.7,2.4,5.8,2.4,9.2c0,3.1-0.7,6.1-2.1,9
			c-1.4,2.9-3.8,5.3-7.1,7.1c-3.3,1.8-7.9,2.8-13.6,2.8c-4.1,0-7.6,0-10.6-0.1c-3-0.1-6.2-0.1-9.7-0.2l-0.6-0.6v-66.1L291.2,418.1z
			 M298.1,479.6c2.3,0,4.7,0,7,0c2.3,0,4.6,0,6.9,0c3,0,5.5-0.4,7.4-1.3c1.9-0.8,3.3-1.9,4.3-3.3c1-1.3,1.7-2.8,2.1-4.3
			c0.4-1.5,0.6-3,0.6-4.3c0-1.8-0.4-3.7-1.3-5.7c-0.9-2-2.4-3.8-4.6-5.2c-2.2-1.4-5.3-2.2-9.4-2.2H295v-6.4h15.3
			c3.6,0,6.3-0.6,8.2-1.8s3.1-2.7,3.8-4.4c0.7-1.8,1-3.5,1-5.2c0-1.8-0.3-3.5-0.9-5.3c-0.6-1.7-1.8-3.2-3.6-4.3
			c-1.8-1.1-4.5-1.7-8.1-1.7c-1.6,0-3.7,0-6.1,0c-2.4,0-4.5,0-6.3-0.1V479.6z"/>
		
			<linearGradient id="SVGID_00000129204535797298897630000012712980472399462797_" gradientUnits="userSpaceOnUse" x1="342.5024" y1="451.9375" x2="396.1587" y2="451.9375">
			<stop  offset="0" style="stop-color:#926AAE"/>
			<stop  offset="1" style="stop-color:#5C64AE"/>
		</linearGradient>
		<path style="fill:url(#SVGID_00000129204535797298897630000012712980472399462797_);" d="M365,418.1c0.6-0.1,1.3-0.2,2.2-0.2
			c0.9,0,1.6-0.1,2.2-0.1c0.6,0,1.3,0,2.1,0.1c0.9,0,1.5,0.1,1.9,0.2l22.6,66.9c-0.6,0.4-1.2,0.6-2,0.8c-0.8,0.2-1.6,0.2-2.5,0.2
			c-1.2,0-2.1-0.3-2.8-0.8s-1.2-1.6-1.7-3.1l-13-39.4c-1-2.9-1.9-5.8-2.8-8.8c-0.9-2.9-1.6-5.5-2.3-7.7h-0.5
			c-0.3,1.3-0.7,2.7-1.1,4.1c-0.4,1.5-0.8,2.9-1.2,4.2s-0.7,2.5-1,3.4l-15.6,47.5c-0.5,0.1-1,0.2-1.6,0.2c-0.6,0-1.2,0.1-1.8,0.1
			c-0.8,0-1.4,0-2-0.1c-0.6-0.1-1.1-0.2-1.7-0.3l-0.2-0.3L365,418.1z M362.3,468c-0.2,0-0.9,0-2,0c-1.1,0-2.3,0-3.4,0
			c-1.1,0-1.8,0-2,0h-3l2.4-6.5h2.7c0.2,0,0.8,0,1.8,0c1,0,1.9,0,2.9,0c1,0,1.6,0,1.7,0h11.3c0.2,0,0.8,0,1.8,0c1,0,2,0,3,0
			c1,0,1.6,0,1.8,0h2.7l2.2,6.5h-3c-0.2,0-0.9,0-2.1,0c-1.2,0-2.3,0-3.4,0c-1.1,0-1.8,0-2,0H362.3z"/>
		
			<linearGradient id="SVGID_00000120530519629172327820000009104964881140482207_" gradientUnits="userSpaceOnUse" x1="408.4746" y1="451.79" x2="455.1846" y2="451.79">
			<stop  offset="0" style="stop-color:#926AAE"/>
			<stop  offset="1" style="stop-color:#5C64AE"/>
		</linearGradient>
		<path style="fill:url(#SVGID_00000120530519629172327820000009104964881140482207_);" d="M408.5,418.1c0.7-0.1,1.4-0.2,2.3-0.2
			c0.9,0,1.6-0.1,2.3-0.1c0.8,0,1.6,0,2.4,0.1c0.9,0,1.6,0.1,2.2,0.2l-2.1,9.1l-0.7,0c0.1,2,0.1,4.2,0.2,6.6s0.2,4.9,0.2,7.4
			s0.1,4.9,0.1,7.2v37c-0.7,0.1-1.3,0.2-1.9,0.2c-0.6,0-1.2,0.1-1.7,0.1c-0.5,0-1.1,0-1.7-0.1c-0.6,0-1.2-0.1-1.8-0.2V418.1z
			 M421.9,440.8c-1.2-2.4-2.4-4.7-3.5-6.9s-2.2-4.5-3.2-6.7l-3.6-4.5l6.1-4.5l23.9,44.7c1.3,2.4,2.5,4.8,3.6,7.1
			c1.1,2.3,2.2,4.6,3.3,6.7l3.6,3.7l-6.2,5.1L421.9,440.8z M455.2,418.3v67.1c-0.4,0.1-0.8,0.1-1.3,0.2c-0.5,0-1,0.1-1.5,0.1
			s-1.1,0-1.7,0c-0.9,0-1.8,0-2.5-0.1s-1.5-0.1-2.1-0.2l2.2-8.8h0.7c-0.1-2.4-0.2-4.9-0.3-7.5c-0.1-2.6-0.2-5.2-0.2-7.7
			c0-2.6-0.1-5-0.1-7.2v-31.5c0-1.6,0.2-2.9,0.7-3.7c0.5-0.8,1.5-1.2,3.2-1.2h2.5L455.2,418.3z"/>
		
			<linearGradient id="SVGID_00000096037840703644872200000005957547738109020341_" gradientUnits="userSpaceOnUse" x1="466.7129" y1="451.938" x2="510.9092" y2="451.938">
			<stop  offset="0" style="stop-color:#926AAE"/>
			<stop  offset="1" style="stop-color:#5C64AE"/>
		</linearGradient>
		<path style="fill:url(#SVGID_00000096037840703644872200000005957547738109020341_);" d="M467.1,424.6c-0.1-0.6-0.2-1.1-0.3-1.7
			c0-0.5-0.1-1.1-0.1-1.6s0-1.1,0.1-1.6c0-0.5,0.1-1.1,0.3-1.7h43.4c0.2,0.5,0.3,1,0.4,1.5s0.1,1.1,0.1,1.6c0,1.2-0.4,2.1-1.1,2.6
			c-0.7,0.5-1.9,0.8-3.4,0.8h-8.5c-0.6,0-1.5,0-2.6,0c-1.2,0-2.1,0-2.7,0H485c-0.6,0-1.5,0-2.7,0c-1.2,0-2.1,0-2.7,0H467.1z
			 M485,431.8c0-1.3,0-2.6,0-3.6s0-2.3,0-3.7v-3.2h7.5v3.2c0,1.4,0,2.6,0,3.7s0,2.3,0,3.6v53.6c-0.5,0.1-1.1,0.2-1.8,0.2
			c-0.7,0-1.3,0.1-1.9,0.1s-1.3,0-1.9-0.1c-0.7,0-1.3-0.1-1.8-0.2V431.8z"/>
		
			<linearGradient id="SVGID_00000136389404482852144290000009699455039698320310_" gradientUnits="userSpaceOnUse" x1="522.1426" y1="451.79" x2="562.4961" y2="451.79">
			<stop  offset="0" style="stop-color:#926AAE"/>
			<stop  offset="1" style="stop-color:#5C64AE"/>
		</linearGradient>
		<path style="fill:url(#SVGID_00000136389404482852144290000009699455039698320310_);" d="M522.1,418.7l0.6-0.6h6.7v6.2
			c0,1.4,0,2.4,0,3.2c0,0.8,0,1.8,0,3.2v44.6c0,0.7,0,1.3,0,1.8c0,0.6,0,1.2,0,1.9v6.3h-3c-1.3,0-2.4-0.4-3.2-1.3
			c-0.8-0.9-1.2-2.1-1.2-3.6V418.7z M560.9,418.1c0.1,0.6,0.2,1.1,0.2,1.6s0,1,0,1.4s0,1-0.1,1.6c-0.1,0.6-0.2,1.3-0.4,1.8h-25.1
			c-0.7,0-1.6,0-2.5,0s-1.9,0-3,0c-1,0-2,0-3-0.1v-6.4H560.9z M555.8,448.1c0.1,0.5,0.2,1.1,0.2,1.7c0,0.6,0.1,1.1,0.1,1.5
			s0,0.9-0.1,1.5c0,0.6-0.1,1.2-0.2,1.7h-20.4c-0.7,0-1.6,0-2.5,0s-1.9,0-3,0s-2,0-3,0v-6.3c1,0,1.9,0,3,0s2,0,3,0c1,0,1.8,0,2.5,0
			H555.8z M562.5,478.9c0,2.6-0.4,4.3-1.2,5.2c-0.8,0.9-2.1,1.4-3.9,1.4h-30.5v-6.2c1.3-0.1,2.6-0.2,3.9-0.3s2.9-0.1,4.7-0.1H562.5z
			"/>
		
			<linearGradient id="SVGID_00000032632453265488457440000010828684274566011792_" gradientUnits="userSpaceOnUse" x1="577.5732" y1="451.9375" x2="622.5098" y2="451.9375">
			<stop  offset="0" style="stop-color:#926AAE"/>
			<stop  offset="1" style="stop-color:#5C64AE"/>
		</linearGradient>
		<path style="fill:url(#SVGID_00000032632453265488457440000010828684274566011792_);" d="M619.6,437.4c0,3-0.5,5.6-1.6,8.1
			c-1.1,2.4-2.5,4.5-4.5,6.2c-1.9,1.7-4.2,2.9-6.9,3.7c1.5,0.5,2.8,1.5,3.9,3c1.1,1.5,2,3.1,2.7,5l5.1,13.3c0.8,2.2,1.5,3.7,2.1,4.7
			c0.6,0.9,1.3,1.7,2,2.4c-0.5,0.9-1.3,1.5-2.4,1.9c-1.1,0.4-2,0.6-2.9,0.6c-1.5,0-2.6-0.4-3.3-1.3c-0.7-0.9-1.4-2.1-2-3.7l-5.7-15
			c-1-2.6-2.2-4.7-3.7-6.4c-1.5-1.7-3.9-2.6-7.2-2.6H582v-6.2c1.5-0.1,3.3-0.1,5.1-0.2c1.9,0,3.8-0.1,5.7-0.1c1.9,0,3.6,0,5.2,0
			c3.6,0,6.4-0.7,8.4-2c2-1.3,3.3-3,4.1-5.1c0.8-2,1.1-4.1,1.1-6.1c0-2.2-0.4-4.3-1.1-6.3s-2.1-3.7-4.1-5c-2-1.3-4.7-1.9-8.4-1.9
			c-1.1,0-2.4,0-4,0s-3.1,0-4.7,0s-3,0-4.2-0.1v61.4c-0.5,0.1-1.1,0.2-1.8,0.2c-0.7,0-1.4,0.1-2.1,0.1c-0.6,0-1.3,0-1.9-0.1
			c-0.7,0-1.3-0.1-1.8-0.2v-66.7l0.6-0.6c3.4-0.1,6.8-0.1,10.2-0.2c3.4-0.1,6.6-0.1,9.8-0.1c4.6,0,8.4,0.8,11.6,2.4
			c3.2,1.6,5.6,3.8,7.3,6.7C618.7,429.8,619.6,433.3,619.6,437.4z"/>
	</g>
</g>
</svg>
